/* XPM */
static char *a1023ba7fc814d89b2088f6d449bebe1HnfmjvuUH8nDJ39Q[] = {
/* columns rows colors chars-per-pixel */
"32 32 174 2 ",
"   c #150000",
".  c #1A0100",
"X  c #1C0B00",
"o  c #191708",
"O  c #171C08",
"+  c #220700",
"@  c #220900",
"#  c #241300",
"$  c #1C2008",
"%  c #142C12",
"&  c #1C2C15",
"*  c #0D351A",
"=  c #093B1C",
"-  c #113417",
";  c #133A17",
":  c #113619",
">  c #183418",
",  c #103C18",
"<  c #233F16",
"1  c #093B21",
"2  c #11491F",
"3  c #224017",
"4  c #365819",
"5  c #1C482D",
"6  c #075023",
"7  c #095927",
"8  c #0B5428",
"9  c #095728",
"0  c #155F27",
"q  c #045431",
"w  c #045D33",
"e  c #1D5834",
"r  c #2C5F27",
"t  c #06632E",
"y  c #02692B",
"u  c #0A692E",
"i  c #016636",
"p  c #0A6534",
"a  c #016935",
"s  c #02663A",
"d  c #0A673B",
"f  c #01693A",
"g  c #0E6A3B",
"h  c #067636",
"j  c #336D2B",
"k  c #4D6233",
"l  c #767E31",
"z  c #006941",
"x  c #1C6A41",
"c  c #1E7641",
"v  c #247644",
"b  c #856D25",
"n  c #04843D",
"m  c #09863B",
"M  c #02893E",
"N  c #03953E",
"B  c #00993F",
"V  c #268135",
"C  c #2F8133",
"Z  c #33983A",
"A  c #3AAF3C",
"S  c #38B83B",
"D  c #088848",
"F  c #029445",
"G  c #099240",
"H  c #009944",
"J  c #02944A",
"K  c #009848",
"L  c #179445",
"P  c #36B646",
"I  c #3BB545",
"U  c #35B943",
"Y  c #3BB844",
"T  c #36B54B",
"R  c #3BB54A",
"E  c #36B84A",
"W  c #3BB94A",
"Q  c #3BAE53",
"!  c #34B751",
"~  c #3AB452",
"^  c #37B854",
"/  c #2DAD6B",
"(  c #2DB867",
")  c #25B56F",
"_  c #29B66E",
"`  c #29B96D",
"'  c #26B772",
"]  c #2BB674",
"[  c #27B975",
"{  c #2AB874",
"}  c #2CB679",
"|  c #27B978",
" . c #2CB879",
".. c #32B476",
"X. c #30B47A",
"o. c #489F41",
"O. c #418050",
"+. c #4F8453",
"@. c #789845",
"#. c #6D9558",
"$. c #7F9E5C",
"%. c #40B544",
"&. c #41B44C",
"*. c #4AA958",
"=. c #57A55D",
"-. c #40B250",
";. c #79A957",
":. c #789763",
">. c #7A9C64",
",. c #62B671",
"<. c #B59B3A",
"1. c #B79845",
"2. c #99AD49",
"3. c #89A75C",
"4. c #B7AF53",
"5. c #ADB855",
"6. c #A9B35C",
"7. c #B8B652",
"8. c #BAB65E",
"9. c #B8BA5E",
"0. c #909477",
"q. c #9B9376",
"w. c #86A965",
"e. c #8AB86E",
"r. c #ACAC61",
"t. c #A7AA6D",
"y. c #A2B567",
"u. c #AEB862",
"i. c #B7B163",
"p. c #BFB667",
"a. c #B7B869",
"s. c #B4BB6A",
"d. c #A0B171",
"f. c #ACBC74",
"g. c #B0BF72",
"h. c #D2AB4E",
"j. c #CBBA42",
"k. c #C6B34D",
"l. c #CEB24F",
"z. c #CDBC4F",
"x. c #D6B54E",
"c. c #DAB54B",
"v. c #D2BE4B",
"b. c #DDBA4C",
"n. c #CCB652",
"m. c #CEBA52",
"M. c #CDB65C",
"N. c #C7B85A",
"B. c #D9B552",
"V. c #DBBB54",
"C. c #D0B55A",
"Z. c #D9B55D",
"A. c #D5BB5A",
"S. c #E4BE51",
"D. c #CAB765",
"F. c #C6B46C",
"G. c #C1B868",
"H. c #CAB969",
"J. c #CFB96B",
"K. c #D2BB62",
"L. c #D9BC60",
"P. c #DEB76B",
"I. c #D4BE6B",
"U. c #CBBC72",
"Y. c #C4B57D",
"T. c #CFBD7D",
"R. c #D0BB7A",
"E. c #E2BB60",
"W. c #AFC058",
"Q. c #BEC051",
"!. c #D5C356",
"~. c #D3C261",
"^. c #DFC063",
"/. c #D3C16B",
/* pixels */
"a a s ] G F y a i a ..] } F F J J J J J R J R a a G s ] N ] i F ",
"i F J J F ' ] { R I F a s s F ' G R z f } s s R P F F F I i F a ",
"a i f F J I f ] s J R ..f s ] F ~ J F F F Y F { ] s { J F P { a ",
"F F f I J } I F y T i U R B { I F T s f f ] F U R ~ F s s F F H ",
"s i a B } X.i i R F J p F f S ] { F F i s F a f a &.Y J s F s i ",
"F a i F F f ] a F F i F d s R F F i I F F P K F T F [ R ] s s F ",
"y f ] ] s F I F F -.f ] I [ P a J f F _ S ] F a J ~ a | F F a ] ",
"_ ~ F ! I P I F R { ] s H f [ s J J F B a } a f F a s J ] F ' R ",
"f J F F a ] s F ] ] f F 9 , ; 3 ; 2 p n s F a F ~ ^ ] ] J Y J F ",
"J J F i f I { J &.J F $ F.H.U.U.U.F.R.Y.0 A a F ] ' ] F s s i J ",
"F i s ' i I [ R F = #.~.!.m.I.D./.K.A.M.J.d.F ] a s F %.R R Y a ",
"F [ T F ] F F ] a # 9.j.v.m.b & - I.C.A.L.J.u f I ] ] F F F F f ",
"J i R &.F ] a f 1 T.!.j.M.@ k 0.i h o P.Z.K.t.Z f f H F F i F F ",
"a F f T f ' F J 5 F.z.Q.. ;.n w / q . P.h.^.U.C a ] F F F I a ] ",
"i a F f p F { F * U.!.2.: F T c >.g.M.V.S.B.G.h I F ' R F I ^ f ",
"T F F i F i a R 9 i.z.W.. R i e u O 7.b.b.x.p.n R i s a F i F F ",
"( F a F a P ] a v r.A.m.g D & n 6 *.<.V.b.V.s.t F a a P a ] B B ",
"N ] F f a ] J J : f.m.5.4 o.O.e.:.V 1.B.c.V.s.i a f R H I i i J ",
"] J [ R B F ' i * 3.!.@.+ L .     +.$.E.c.V.s.w i R ] ] ] F ` a ",
"i &.f %.I f f F t f k.!.,.. r q.D D > 4.b.l.s.M J f B ] i F H ] ",
"F F F F F F F F _ i 3.!.m.;.l j q 6.N.V.V.I.% F F f F ' I F H ] ",
"T ) a ] Y F F W F a =.y.~.n.N.8.6.~.n.A.D.y.F a I a a a ] F F s ",
"^ F F i a F Y F i F e X f.s.s.s.u.s.s.w.m F ~ F a } F W H i R ] ",
"G f F J f ] F R F f J F x % O O < 7 / F f F J s a ! a F s F _ N ",
"I ..J a J F s ' a F F s J ] &.F F R F s F F i ] f f F Y ] } J F ",
"F i F F f ] H i ! F ' P s i a R s Q R i J a i f ! %.F s P R ] F ",
"i F R a f P H F ] [ s i F d R P F J F I F i s J E { f J f s [ ] ",
"s J f s ] ] a F P _ F f I I F  .J i I a ` J ] f ..i F I F f F H ",
"F I ] F s a R F I ' Y F d s R F a G ] ] P F ] } [ i F H F F I ] ",
"a a ] ] F I ] I I f F F s a s i F F F i I R ] F ] a { ] ] F [ i ",
"a F a f a F a ] I _ s i F F i i a s I F E [ F J J [ s F p F i F ",
"F ] i F a F a F f f E R I f ] F ] R N E I F F J R ~ F [ I F F F "
};
