/* XPM */
static char *_a1690c9f1594e62ae9d844aeff96f95qHWAEhqvPUgW0Jpu[] = {
/* columns rows colors chars-per-pixel */
"32 32 144 2 ",
"   c #1E0905",
".  c #240000",
"X  c #2A0000",
"o  c #0A2C13",
"O  c #102811",
"+  c #0C3D1C",
"@  c #113618",
"#  c #1D3918",
"$  c #7A3C0D",
"%  c #0B4321",
"&  c #084A27",
"*  c #1B442A",
"=  c #06552C",
"-  c #065E29",
";  c #035733",
":  c #105B32",
">  c #1E5B38",
",  c #22452D",
"<  c #295021",
"1  c #02692B",
"2  c #026636",
"3  c #086337",
"4  c #016935",
"5  c #026639",
"6  c #0B663A",
"7  c #01693A",
"8  c #057937",
"9  c #2A772C",
"0  c #2F753D",
"q  c #30783E",
"w  c #7F4413",
"e  c #764119",
"r  c #7A441B",
"t  c #5F4836",
"y  c #575D3C",
"u  c #694127",
"i  c #654328",
"p  c #6E492F",
"a  c #754726",
"s  c #7B4521",
"d  c #764925",
"f  c #7C4924",
"g  c #764B2D",
"h  c #794C2B",
"j  c #7D512F",
"k  c #6C4C34",
"l  c #604D3F",
"z  c #6F4F38",
"x  c #734E33",
"c  c #645534",
"v  c #6A5733",
"b  c #79543A",
"n  c #4B6433",
"m  c #496933",
"M  c #496838",
"N  c #036741",
"B  c #006941",
"V  c #1F7345",
"C  c #1C7E4B",
"Z  c #6F5441",
"A  c #6A6740",
"S  c #84430D",
"D  c #8C450F",
"F  c #814615",
"G  c #894612",
"H  c #864817",
"J  c #8D4A16",
"K  c #82461C",
"L  c #834A1F",
"P  c #894B1C",
"I  c #834D25",
"U  c #804B29",
"Y  c #8D5429",
"T  c #A66933",
"R  c #AF6A31",
"E  c #B57037",
"W  c #B0713C",
"Q  c #9E724D",
"!  c #9C7A5E",
"~  c #A67044",
"^  c #AC7240",
"/  c #B37441",
"(  c #B47844",
")  c #A17654",
"_  c #06893F",
"`  c #03953E",
"'  c #00993F",
"]  c #338936",
"[  c #318E3A",
"{  c #3BB63D",
"}  c #35BA3B",
"|  c #029545",
" . c #099240",
".. c #019945",
"X. c #029449",
"o. c #009848",
"O. c #248B57",
"+. c #258D5B",
"@. c #37B547",
"#. c #3BB545",
"$. c #35B943",
"%. c #3BB844",
"&. c #36B54B",
"*. c #3BB54B",
"=. c #36B84A",
"-. c #3BB94A",
";. c #3BAE53",
":. c #34B751",
">. c #3AB452",
",. c #3DB450",
"<. c #3AB354",
"1. c #39B756",
"2. c #37B854",
"3. c #2DB867",
"4. c #27B76F",
"5. c #2DB16F",
"6. c #29B66E",
"7. c #29B96D",
"8. c #25B770",
"9. c #27B774",
"0. c #2BB673",
"q. c #2FB572",
"w. c #2EB773",
"e. c #2AB574",
"r. c #2DB575",
"t. c #26B972",
"y. c #27B875",
"u. c #2BB873",
"i. c #29B976",
"p. c #2BB779",
"a. c #2CB779",
"s. c #2EB37C",
"d. c #27B978",
"f. c #2CB879",
"g. c #33B376",
"h. c #32B476",
"j. c #30B47A",
"k. c #41B642",
"l. c #40B447",
"z. c #42B34B",
"x. c #41B44C",
"c. c #40B54C",
"v. c #40B250",
"b. c #DEBCA3",
/* pixels */
"4 4 5 0. .| 1 4 2 4 g.r.p.| | X.X.X.X.X.*.X.*.4 4  .5 e.` e.2 | ",
"2 | X.X.| t.r.u.*.#.| 4 5 5 | 8. .*.B 7 s.5 5 *.@.| | | #.2 | 4 ",
"4 2 7 | X.#.7 w.5 X.*.h.7 5 0.| <.X.| | | %.| u.r.5 u.X.| @.u.4 ",
"| | 7 #.X.e.#.| 1 &.2 $.*.' u.#.| &.5 7 7 e.| $.*.>.| 5 5 | | ..",
"5 2 4 ' a.j.2 2 *.| X.4 | 7 { a.u.| | 2 5 | 4 7 4 z.%.X.5 | 5 2 ",
"| 4 2 | | 7 0.4 | | 2 | 5 5 *.| | 2 #.| | @.o.| &.| i.*.e.5 5 | ",
"1 7 r.e.5 | #.| | v.7 0.#.i.@.4 X.7 | 6.} e.| 4 X.<.4 d.| | 4 0.",
"6.<.| :.#.@.#.| *.u.w.5 ..7 i.6 X.X.| ' 4 p.4 7 | 4 5 X.0.| 9.*.",
"7 X.| | 4 0.5 | 0.e.7 | | q n f ) M y | 5 | 4 | ,.1.e.e.X.%.X.| ",
"X.X.| 2 7 #.u.X.c.X.| | | 0 Y K ~ d c | X.{ 4 | e.8.e.| 5 5 2 X.",
"| 2 5 9.2 #.y.*.| | 7 X.2 m $ G ^ L j i 5.| | w.4 5 | l.*.*.%.4 ",
"| i.&.| 0.| | r.4 5 4.| 2 A P J W w f x ; 7 | 7 #.0.e.| | | | 7 ",
"X.2 *.c.| e.4 7 5 *.*.5 4 v e H T P X , N #.7 @.5 7 ..| | 2 | | ",
"4 | 7 &.7 t.| X.f.5 2 | | c h r ( w r b 8 #...*.4 0.| | | #.4 0.",
"2 4 | 7 3 | u.| 2 2 2 | 4 _ < d ^ F U k O.| e.X.#.| 8.*.| #.1.7 ",
"&.| | 2 | 2 4 *.| 4 | *.e.]   I ^ F f x [ 4 5 X.*.2 5 4 | 2 | | ",
"3.| 4 | 4 @.e.4 6.5  .C : h L G E S K g O.*.@.2 | 4 4 @.4 0.' ' ",
"` r.| 5 4 r.X.X.2 r.4 | = f H D R J I g V e.0.4 4 7 *...#.2 2 X.",
"r.X.i.*.' | 8.2 7 | *.7 8 a L H / F s u % | | 5 2 *.e.0.0.| 7.4 ",
"2 c.7 k.#.7 7 | | 7 w.@.+.x f r ~ r . b.> i.k.| X.7 ' w.2 | ..e.",
"| | | | | | | | 6.7 2 @.& z g h Q j p Z 9 4 2 | | 7 | 8.#.| ..e.",
"&.4.4 e.%.| | -.| 4 ..u.- t k x ! k k l 9 @.| 4 #.4 4 4 0.| | 5 ",
"2.| | 2 4 | %.| 2 | w.a.| O + % * @ # o | | >.| 4 p.| -...2 *.0.",
" .7 | X.7 e.| *.| 7 X.| 8.| 2 4 :.| w.| 7 | X.5 4 :.4 | 5 | 6.` ",
"#.h.X.4 X.| 5 9.4 | | 5 X.0.l.| | *.| 5 | | 2 r.7 7 | %.0.a.X.| ",
"| 2 | | 7 0...2 :.| 9.@.5 2 4 *.5 ;.*.5 X.4 2 7 :.k.| 5 @.*.r.| ",
"2 | *.4 7 @...| w.i.5 2 | 5 *.@.| X.| #.| 2 5 X.=.u.7 X.7 5 i.0.",
"5 X.7 5 0.r.4 | @.6.| 7 #.#.| f.X.2 #.4 7.X.r.7 h.2 | #.| 7 | ..",
"| #.e.| 5 4 *.| #.8.%.| 6 5 *.| 4  .e.r.@.| e.p.i.2 | ..| | #.0.",
"4 4 e.r.| #.0.#.#.7 | | 5 4 5 2 | | | 2 #.*.e.| 0.4 i.0.0.| i.2 ",
"4 | 4 5 4 | 4 0.#.6.5 2 | | 2 2 4 5 #.| =.y.| X.X.y.5 | 3 | 2 | ",
"| 0.2 | 4 | 4 | 7 7 =.*.#.7 e.| e.*.` =.#.| | X.*.,.| y.#.| | | "
};
