/* XPM */
static char *cab1eb8419274a43afdd7b3aaae6c9d1JcA5NlgrnYkKBjW9[] = {
/* columns rows colors chars-per-pixel */
"32 32 159 2 ",
"   c #050102",
".  c #0A0000",
"X  c #150000",
"o  c #1D0000",
"O  c #1D0F0A",
"+  c #161C0D",
"@  c #240000",
"#  c #350000",
"$  c #36170A",
"%  c #072611",
"&  c #142410",
"*  c #112C1B",
"=  c #05361D",
"-  c #1E3D1E",
";  c #21290E",
":  c #440000",
">  c #7B1627",
",  c #721E2D",
"<  c #791D28",
"1  c #5B222B",
"2  c #4B2C31",
"3  c #532C37",
"4  c #592C33",
"5  c #4E303C",
"6  c #50303B",
"7  c #642629",
"8  c #66292C",
"9  c #75242B",
"0  c #7A2029",
"q  c #6D2530",
"w  c #672934",
"e  c #782434",
"r  c #22501F",
"t  c #074723",
"y  c #045426",
"u  c #015628",
"i  c #035A32",
"p  c #2C4C38",
"a  c #295C3B",
"s  c #03632F",
"d  c #02692B",
"f  c #026636",
"g  c #086337",
"h  c #016935",
"j  c #0E6B37",
"k  c #02663A",
"l  c #0A673B",
"z  c #01693A",
"x  c #037635",
"c  c #2A622C",
"v  c #036741",
"b  c #006941",
"n  c #1C7E4B",
"m  c #206040",
"M  c #387251",
"N  c #5C4C4D",
"B  c #5F5353",
"V  c #6B434B",
"C  c #714346",
"Z  c #784544",
"A  c #70474F",
"S  c #744C4D",
"D  c #624D50",
"F  c #6B4D52",
"G  c #685C54",
"H  c #646256",
"J  c #577C63",
"K  c #6A766E",
"L  c #864345",
"P  c #967774",
"I  c #9C797F",
"U  c #02833B",
"Y  c #03953E",
"T  c #00993F",
"R  c #3BB63D",
"E  c #35BA3B",
"W  c #028541",
"Q  c #028C41",
"!  c #0D894B",
"~  c #029545",
"^  c #099240",
"/  c #009844",
"(  c #02944A",
")  c #009848",
"_  c #3CAF46",
"`  c #37B647",
"'  c #3BB545",
"]  c #35B943",
"[  c #3BB844",
"{  c #36B54B",
"}  c #3BB54B",
"|  c #36B84A",
" . c #3BB94A",
".. c #34B751",
"X. c #3BB452",
"o. c #37B854",
"O. c #2AA76D",
"+. c #2DB867",
"@. c #26B66F",
"#. c #29B56E",
"$. c #29B96D",
"%. c #26B772",
"&. c #2BB673",
"*. c #2EB573",
"=. c #2BB674",
"-. c #2DB575",
";. c #27B975",
":. c #29B873",
">. c #2AB874",
",. c #2BB779",
"<. c #2EB678",
"1. c #2CB67A",
"2. c #27B978",
"3. c #2CB879",
"4. c #32B476",
"5. c #30B47A",
"6. c #488E48",
"7. c #40B544",
"8. c #41B44C",
"9. c #40B250",
"0. c #428360",
"q. c #90817C",
"w. c #978088",
"e. c #9D9294",
"r. c #A6878C",
"t. c #B28A88",
"y. c #A48990",
"u. c #AE8990",
"i. c #B78F97",
"p. c #AD9094",
"a. c #A09897",
"s. c #A99F96",
"d. c #AE959B",
"f. c #B69699",
"g. c #BC949F",
"h. c #A29DA1",
"j. c #A8A4A5",
"k. c #C2979E",
"l. c #DEB4B8",
"z. c #DBBCC2",
"x. c #D1C6C4",
"c. c #D8C1C7",
"v. c #EDC3C7",
"b. c #D7ECDA",
"n. c #FFDCEC",
"m. c #FFE0E5",
"M. c #FFE0E8",
"N. c #FFEFEA",
"B. c #EEF0E5",
"V. c #EEF7EF",
"C. c #FFECF6",
"Z. c #FFEBFC",
"A. c #FDF4F3",
"S. c #FFFBF4",
"D. c #FFF4FB",
"F. c #FDFCFB",
"G. c #FFFAFF",
"H. c #FEFDFE",
"J. c white",
/* pixels */
"h h k &.^ ~ d h f h 4.=.,.~ ~ ( ( ( ( ( } ( } h h ^ k =.Y =.f ~ ",
"f ~ ( ( ~ %.=.>.} } ~ h f f ~ %.^ } b z <.k k } ` ~ ~ ~ } f ~ h ",
"h f z ~ ( } z *.k ( } 4.z k &.~ X.( ~ ~ ~ [ ~ >.=.k >.( ~ ` >.h ",
"~ ~ z } ( =.[ ~ d { f ] } T >.[ ~ { k z z =.~ ] } X.~ k k ~ ~ / ",
"k f h T <.5.f f } ~ ( h ~ z R <.>.~ ~ f k ~ h z h 8.[ ( k ~ k f ",
"~ h f ~ ~ z &.h ~ ~ f ~ l k } ~ ~ f [ ~ ~ ` ) ~ { ~ :.} =.k k ~ ",
"d z =.=.k ~ } ~ ~ 9.z &.} :.' J.j.A.  #.E =.~ h ( X.h 2.~ ~ h &.",
"#.X.~ ..} ` ' ~ } >.*.k / z J.J.J.J.J.U h ,.h z ~ h k ( &.~ %.} ",
"z ( ~ ~ h &.k ~ &.=.z ~ ~ ~ h.J.F.J.J.~ k ~ h ~ X.o.=.=.( [ ( ~ ",
"( ( ~ f z ' >.( 8.( ~ ~ ~ W G.. . S.  ~ ( R h ~ =.%.=.~ k k f ( ",
"~ f k %.f ' ;.} ~ ~ z ( f % G.y.u.o r.z *.~ ~ *.h k ~ 7.} } [ h ",
"~ :.{ ~ &.~ ~ =.h k @.~ f D d.X l.v.X z z z ~ z ' &.=.~ ~ ~ ~ z ",
"( f } 8.~ =.h z k } } k p F F f.X . s.G v ' z ` z z / ~ ~ f ~ ~ ",
"h ~ z { z %.~ ( 3.z f ~ F.p.i.S S.S.. H ~ ' / } h &.~ ~ ~ ' h &.",
"f h ~ z g ~ >.~ f f f V.f & k.C S t.X G * Q =.( [ ~ %.} ~ } o.z ",
"{ ~ ~ f ~ f h } ~ h b.B.=._ 4 C.7 L Z o N.q.= ( } f k h ~ f ~ ~ ",
"+.~ h ~ h ` =.h #.k ^ n j ! o w 9 m.L 8 @ P + f U h h ` h &.T T ",
"Y -.~ z h =.( ( f =.J ~ h X.g.C.< M.0 # 8 A.X S.x.i } / } f f ( ",
"-.( :.} T ~ %.f z ~ } z / U 3 Z.> n.> $ q @ D.z.X } =.&.&.~ $.h ",
"f 8.z 7.} z z ~ ~ z *.` =.e.O Z.e : , - 1 a ; c.D.i T *.f ~ / =.",
"~ ~ ~ ~ ~ ~ ~ ~ #.z f ` f a./ o o } j k r h f s u z ~ %.[ ~ / =.",
"{ @.h =.[ ~ ~  .~ h / >.~ ~ O.6 2 + ( k [ ` ~ h } h h h &.~ ~ k ",
"o.~ ~ f h ~ [ ~ f ~ *.<.~ w.U 5 3 A I ~ ~ ~ X.~ h ,.~  ./ f } &.",
"^ z ~ ( z =.~ } ~ z ( ~ 0.Q f i c V F ~ z ~ ( k h ..h ~ k ~ $.Y ",
"} 4.( h ( ~ k %.h ~ ~ m M #.8.~ U D D k ~ ~ f =.z z ~ [ &.<.( ~ ",
"~ f ~ ~ z &./ f ..~ %.6.K f h } k N B k ( h f z ..7.~ k ` } -.~ ",
"f ~ } h z ` / ~ *.:.k i x l } ` ~ t y [ ~ f k ( | >.z ( z k :.&.",
"f ( z k &.=.h ~ ` #.~ z } } ~ 3.( f } h $.( =.z 4.f ~ } ~ z ( ) ",
"~ } =.~ k h } ~ } %.[ ~ l k } ~ h ^ =.=.` ~ =.,.:.f ~ / ~ ~ } &.",
"h h =.=.~ } &.} } z ~ ~ k h k f ~ ~ ~ f } } =.~ &.h 3.&.&.~ :.f ",
"h ~ h z h ~ h &.} #.k f ~ ~ f f h k } ~ | ;.~ ( ( ;.k ~ s ~ f ~ ",
"~ &.f ~ h ~ h ~ z z | } [ z =.~ =.} Y | [ ~ ~ ( } X.~ ;.[ ~ ~ ~ "
};
