/* XPM */
static const char *U2FmZWltYWdla2l0LXJlc2l6ZWQtaW1n[] = {
/* columns rows colors chars-per-pixel */
"32 32 81 1 ",
"  c #02692B",
". c #026636",
"X c #086337",
"o c #016935",
"O c #02663A",
"+ c #0A673B",
"@ c #01693A",
"# c #0E6A3B",
"$ c #036741",
"% c #006941",
"& c #1C7E4B",
"* c #03953E",
"= c #00993F",
"- c #3BB63D",
"; c #35BA3B",
": c #028C42",
"> c #0C8B4B",
", c #029545",
"< c #099240",
"1 c #009844",
"2 c #029449",
"3 c #009848",
"4 c #37B547",
"5 c #3BB545",
"6 c #35B943",
"7 c #3BB844",
"8 c #36B64B",
"9 c #3AB349",
"0 c #3DB249",
"q c #3AB648",
"w c #39B74B",
"e c #3CB448",
"r c #3CB44A",
"t c #3BB24E",
"y c #3BB64E",
"u c #3DB64D",
"i c #36B84A",
"p c #3BB84A",
"a c #3BAE53",
"s c #37AB5A",
"d c #34B751",
"f c #39B253",
"g c #38B750",
"h c #3DB450",
"j c #3AB354",
"k c #39B756",
"l c #37B854",
"z c #2AA964",
"x c #30AD6B",
"c c #2DB867",
"v c #27B76F",
"b c #29B76F",
"n c #29B96D",
"m c #24B770",
"M c #27B674",
"N c #2AB571",
"B c #2BB673",
"V c #2EB773",
"C c #2AB574",
"Z c #2CB474",
"A c #26B972",
"S c #27B875",
"D c #2BB873",
"F c #28B976",
"G c #2BB876",
"H c #2AB679",
"J c #2CB678",
"K c #2CB779",
"L c #2EB37C",
"P c #27B978",
"I c #2CB879",
"U c #33B376",
"Y c #32B476",
"T c #30B47A",
"R c #40AC49",
"E c #41B642",
"W c #40B447",
"Q c #42B34B",
"! c #40B54C",
"~ c #42B54D",
"^ c #40B44F",
/* pixels */
"ooOB<, o.oUZH,,22222e2eoo<OC*C.,",
".,22,AZDyq,o..,m<u%@LOOeq,,,q.,o",
"o.@,2q@VO2eY@OB,f2,,,7,DZOD2,4Do",
",,@q2C5, 8.69=D5,iO@@C,6yh,OO,,1",
"O.o=JT..t,2o,@-JD,,.O,o@oQ72O,O.",
",o.,,@Bo,,.,+Oy,,.5,,q3,8,FyCOO,",
" @ZCO,q,,^@BqFqo2@,b;C,o2foP,,oB",
"bj,gqq0,9DVO1@FO22,=oHo@,oO2B,Me",
"@2,,oBO,BC@,,,2i,,2,O,o,hkCC2q2,",
"22,.@9D2^2,,,2,O,^,,2-o,CmC,OO.2",
",.OM.9Se,,@2.,.,22,@V,,VoO,Wee7o",
",Fi,B,,ZoOv,.m1O27.@@@,@0BC,,,,@",
"2.u^,Co@OyeOoeCC.,OS$9@q@@1,,.,,",
"o,@i@A,2F@.,,e,OVO,@,01yoB,,,9oB",
".o,@X,D,...,o,8oOeo,B,C25,m9,qk@",
"i,,.,.oe,o,9Ce.B,,R,qoO2u.Oo,.,,",
"c,o,o4CobO<&#>x2:s:zZu4.,ooqoB==",
"*Z,@oZ22.Zo,ohOt.,,0bCBoo@y1q..2",
"Z2Fy=,m.@,y@1,.o>MC,.,,O.uCBB,no",
".^@Eq@@,,@VqC.e,2222BFE,2@=V.,1C",
",,,,,,,,b@.q.,1e@9,Opo.,,@,m5,1C",
"8voC7,,p,o1D,,Coo.2O74,oqoooB,,O",
"l,,.o,7,.,VJ,.,,S,u,,,h,oH,p1.yB",
"<@,2@C,9,@2,m,.og,B,@,2Oodo,O,b*",
"qY2o2,OMo,,O2B^,,u,O,,.Z@@,7BJ2,",
",.,,@B1.g,MqO.oyOaeO2o.@gE,OqeZ,",
".,9o@q1,VFO.,+e4,2,5,.O2qD@2@OFB",
".2@OBZo,qb,@qq,I2.qon2Z@Y.,q,@,1",
",qC,Oot,qm7,+Ou,o<CZq,CHF.,1,,qB",
"ooCZ,qBqq@,,OoO.,,,.qeC,BoFBB,F.",
"o,o@o,oBqbO.,,..oOq,iS,22SO,X,.,",
",B.,o,o,@@ie5@C,Ce*q5,,29h,S5,,,"
};
