/* XPM */
static char *e7197ebd66fe4b66a69a7245bed3aaabL0MfBt1OUkUj6rPa[] = {
/* columns rows colors chars-per-pixel */
"32 32 112 2 ",
"   c #150E03",
".  c #1B0D04",
"X  c #1A0F09",
"o  c #171205",
"O  c #1B1306",
"+  c #1C1309",
"@  c #1E180C",
"#  c #220D06",
"$  c #231306",
"%  c #21140A",
"&  c #2C1811",
"*  c #332117",
"=  c #382215",
"-  c #38201C",
";  c #42261C",
":  c #442C22",
">  c #492D23",
",  c #4F3126",
"<  c #4C332C",
"1  c #52352C",
"2  c #54392F",
"3  c #4F3832",
"4  c #543630",
"5  c #553C33",
"6  c #5C3D35",
"7  c #5C3E39",
"8  c #603E35",
"9  c #603F39",
"0  c #5D4137",
"q  c #57423D",
"w  c #5E413A",
"e  c #614036",
"r  c #63433C",
"t  c #6B463E",
"y  c #6D4A3F",
"u  c #71493F",
"i  c #524340",
"p  c #5A4741",
"a  c #5C4C44",
"s  c #644441",
"d  c #684740",
"f  c #654C44",
"g  c #6D4B42",
"h  c #6C4F49",
"j  c #714E44",
"k  c #734E49",
"l  c #695147",
"z  c #66514E",
"x  c #6C534D",
"c  c #745146",
"v  c #75534B",
"b  c #7B554C",
"n  c #7C594D",
"m  c #675450",
"M  c #6D5551",
"N  c #6D5953",
"B  c #715753",
"V  c #735954",
"C  c #7E5A51",
"Z  c #765D59",
"A  c #BA4C11",
"S  c #CC5616",
"D  c #81564F",
"F  c #815B4E",
"G  c #845A4E",
"H  c #825C4F",
"J  c #835650",
"K  c #835B51",
"L  c #825C51",
"P  c #825C53",
"I  c #835C53",
"U  c #875D51",
"Y  c #875A54",
"T  c #855C56",
"R  c #895C55",
"E  c #895E55",
"W  c #885D57",
"Q  c #8C5D57",
"!  c #855F58",
"~  c #8A5F58",
"^  c #876154",
"/  c #8A6155",
"(  c #8D6357",
")  c #8A6457",
"_  c #82625A",
"`  c #876259",
"'  c #82645A",
"]  c #87655C",
"[  c #8A625A",
"{  c #8E635A",
"}  c #8D655B",
"|  c #8F625C",
" . c #8B655C",
".. c #8F645E",
"X. c #8E695E",
"o. c #906157",
"O. c #91665D",
"+. c #92655F",
"@. c #95665E",
"#. c #93685F",
"$. c #956B5F",
"%. c #896B60",
"&. c #896B63",
"*. c #926760",
"=. c #926A60",
"-. c #956B62",
";. c #996D64",
":. c #967063",
">. c #9C7166",
",. c #9C746A",
"<. c #9C756B",
"1. c #FB913B",
/* pixels */
"0 F F L T ' + [ 8 8 6 g r r r O n n n n b } E C v o b b r 8 0 ] ",
"5 1 j g r r X r 6 6 6 ; r r w . C b B M M 2 C n k   g 8 6 0 : a ",
"% + + + + + 6 + + + O O + + + 7 + + O + + O O O O 5 + O O O + + ",
"B B # # ( ( $.O.O...}  .+ | } } L g g ) ) T - # *.*.O.O.O.....{ ",
"V B # . H ,.$.e v l j 6 O Q r r 6 6 6 b j e & # n L r v 0 0 g [ ",
"M M . . F n b b : 4 4 4 O C r r r r r > 6 6 % . 8 6 6 6 w w > ` ",
"+ + % w O + + O + O + O r % @ + + + + + + + % w @ @ @ @ + + + + ",
"#.@...%.. =.j ` j X.=.=.J Y T t Z . + | { { ( E E T T E + L L U ",
" .r r f . K v C d v v r 0 8 b ` Z . + L K r w w j j g g O G F K ",
"s r r r   C n n v x = w 6 6 6 l x . . n e 9 8 0 ; 6 5 5 O n j c ",
"+ + + O w O O o O + + + + O + + . . r % % % + + + + + + 5 + + + ",
"L ;.;.Y o.( E U F + E U K K K F O.O.O.......r + -.u / [ b T U U ",
"F -.>.U r r ! L 6 . L L L U 4 4 t h M V N N p O -.$.=.N f ,.{ ,.",
"n 6 6 6 6 6 1 t 6   K =.X.V N M r 2 : t x z q O v x x x ..E T L ",
"+ O O O O O + + O 5 + + + + + + + + + + + O + 5 + + + + + + + + ",
"C y v   L L K K K -.-.. %.-.-.-.*.@.@.O *.O.*.t O.....f + K n { ",
"x M 6   K K K K F -.#.. B v c j j j r O k j j j g g g 5 . b l m ",
"O o O s $ O O O O O O < . O O + + + + 3 + o O O O O O + 7 + . O ",
"b >.>.n L L O n C n n n n n . > b b n n n D { [ + T U g g ;.-.-.",
"c c c e 5 5 O r r r r r r r   * g g g g g g g w O K C g g b v c ",
"O O + O + + w + + + + + + O < 5 O O O O + O O % f + O + + + + + ",
"+ H T U L L g =.=.L . _ -.=.#.b L L L K + / / ^ b j n -.;.C o C ",
"o T b c c k g k J n   C L Y j j n n n 2 o U c c c C n g d 4 o 6 ",
"7 + + + O + + + O + 0 $ O O O O O O + O f % + + O + + + O O g + ",
"....O...O %.....[ / E E E L O O.....O...O...b c + { [ ~ E T T T ",
"g c c k O C X.K L r g y g 5   L r r e 8 8 c c c O n 6 6 8 8 g g ",
"p , , w   n n b b v > 6 2 2 o 6 7 M 7 r 9 ; t d O v 0 6 6 6 ; 1 ",
"O . O X < + + + + + + + + + < + + + + + + + + O 6 + + + + + % X ",
"U T T r L E E b + | o.;.-.-.T U T o G G G H H H b T U L + T 1.L ",
"L _ _ 1 1 2 L < X G :.:.f f l c g o L H F F F -.-.>.,.=.+ A L K ",
"C v M i 6 < 1 < . n C b v 1 1 2 2 o G K F G F 6 x x v v S H K F ",
"% % % % % % % % s + O + + + + + + 5 + + + + + + + + + + 6 $ + + "
};
